<svg width="100" height="100" viewBox="0 0 100 100" fill="none" xmlns="http://www.w3.org/2000/svg">
  <path d="M10 38.486V91C10 93.7614 12.2386 96 15 96H37C39.7614 96 42 93.7614 42 91V71.0909C42 68.3295 44.2386 66.0909 47 66.0909H50H53C55.7614 66.0909 58 68.3295 58 71.0909V91C58 93.7614 60.2386 96 63 96H85C87.7614 96 90 93.7614 90 91V38.486C90 37.0238 89.3599 35.6348 88.2483 34.6849L53.2483 4.77579C51.3777 3.17733 48.6223 3.17733 46.7517 4.77579L11.7517 34.6849C10.6401 35.6348 10 37.0238 10 38.486Z" fill="white"/>
</svg>
