<svg width="500" height="200" viewBox="0 0 500 200" fill="none" xmlns="http://www.w3.org/2000/svg">
  <path fill-rule="evenodd" clip-rule="evenodd" d="M199.523 35.5H208.344V23.125V20H199.523V23H171.844L162.344 32.6172H179.094V80H190.812V32.6172H199.523V35.5ZM143.352 60C144.914 61.1719 145.695 62.8646 145.695 65.0781C145.695 67.1094 144.914 68.6979 143.352 69.8437C141.789 70.9635 139.615 71.5234 136.828 71.5234C129.328 71.5234 125.578 68.3854 125.578 62.1094H113.82C113.82 65.7812 114.758 69.0104 116.633 71.7969C118.534 74.5833 121.281 76.7839 124.875 78.3984C128.469 79.987 132.453 80.7812 136.828 80.7812C143.13 80.7812 148.143 79.388 151.867 76.6016C155.591 73.7891 157.453 69.9219 157.453 65C157.453 60.5729 155.93 56.875 152.883 53.9062C149.836 50.9375 144.979 48.4505 138.312 46.4453C134.693 45.3516 131.945 44.1797 130.07 42.9297C128.221 41.6797 127.297 40.1302 127.297 38.2812C127.297 36.3021 128.091 34.7135 129.68 33.5156C131.268 32.2917 133.495 31.6797 136.359 31.6797C139.328 31.6797 141.633 32.4089 143.273 33.8672C144.914 35.2995 145.734 37.3177 145.734 39.9219H157.453C157.453 36.5104 156.568 33.4635 154.797 30.7812C153.052 28.099 150.591 26.0286 147.414 24.5703C144.237 23.0859 140.617 22.3437 136.555 22.3437C132.518 22.3437 128.872 23.0208 125.617 24.375C122.388 25.7292 119.901 27.6172 118.156 30.0391C116.438 32.4349 115.578 35.1693 115.578 38.2422C115.578 44.1536 118.807 48.8542 125.266 52.3437C127.635 53.6198 130.852 54.9219 134.914 56.25C138.977 57.5521 141.789 58.8021 143.352 60ZM257.938 23V60.4609C257.938 66.6849 255.984 71.6068 252.078 75.2266C248.198 78.8464 242.885 80.6562 236.141 80.6562C229.5 80.6562 224.227 78.8984 220.32 75.3828C216.414 71.8672 214.422 67.0365 214.344 60.8906V23H226.062V60.5391C226.062 64.263 226.948 66.9844 228.719 68.7031C230.516 70.3958 232.99 71.2422 236.141 71.2422C242.729 71.2422 246.076 67.7786 246.18 60.8516V23H257.938ZM279.328 79.875V59.8359H289.602C296.346 59.8359 301.62 58.2344 305.422 55.0312C309.25 51.8021 311.164 47.401 311.164 41.8281C311.164 38.1562 310.292 34.888 308.547 32.0234C306.802 29.1328 304.302 26.9062 301.047 25.3438C297.818 23.7812 294.068 23 289.797 23H267.609V79.875H279.328ZM289.797 50.3438H279.328V32.4922H290.07C292.961 32.5443 295.227 33.4297 296.867 35.1484C298.508 36.8672 299.328 39.1198 299.328 41.9062C299.328 44.6146 298.508 46.6979 296.867 48.1562C295.253 49.6146 292.896 50.3438 289.797 50.3438ZM342.844 79.875V23H355.044V26.0552H355.344V23H360.044V26.0552H360.344V23C361.84 23 363.288 23.1014 364.689 23.3043L364.211 26.1193L364.507 26.1695L364.986 23.3489C366.608 23.6018 368.166 23.9922 369.659 24.52L368.704 27.02L368.984 27.1271L369.941 24.6217C371.259 25.1057 372.526 25.6979 373.742 26.3984C373.823 26.4442 373.904 26.4903 373.984 26.5369L372.406 28.7256L372.65 28.901L374.243 26.6898C375.674 27.545 376.986 28.5309 378.18 29.6475L376.088 31.5245L376.289 31.7478L378.398 29.8545C379.423 30.8387 380.359 31.9216 381.205 33.1032L378.775 34.6078L378.933 34.8628L381.378 33.3487C381.963 34.1865 382.503 35.0729 383 36.0078C383.274 36.5196 383.53 37.0401 383.77 37.5693L381.265 38.7592L381.394 39.0302L383.892 37.8434C384.643 39.5513 385.22 41.3492 385.622 43.2373L383.166 43.8376L383.237 44.129L385.683 43.5312C386.019 45.1862 386.222 46.9097 386.292 48.7018L383.328 48.6853L383.327 48.9853L386.303 49.0018C386.314 49.381 386.32 49.7632 386.32 50.1484V52.7656C386.32 53.1811 386.314 53.593 386.3 54.0012L383.326 54.0181L383.328 54.3181L386.289 54.3013C386.213 56.1329 386 57.8911 385.65 59.5757L382.874 58.9043L382.803 59.1959L385.587 59.8693C385.168 61.7883 384.569 63.611 383.79 65.3373L381.395 64.1765L381.264 64.4464L383.665 65.6101C383.467 66.0351 383.259 66.4541 383.039 66.8672C382.483 67.925 381.868 68.9217 381.194 69.8573L378.842 68.3767L378.682 68.6306L381.017 70.1001C380.153 71.2662 379.195 72.3352 378.143 73.3071L376.187 71.5206L375.985 71.7421L377.921 73.5101C376.722 74.5882 375.404 75.5434 373.967 76.3757L372.65 74.5119L372.405 74.685L373.705 76.5251C372.434 77.2409 371.111 77.8419 369.736 78.3283L368.984 76.3211L368.703 76.4263L369.453 78.4267C367.987 78.9259 366.462 79.2961 364.88 79.5373L364.507 77.2973L364.211 77.3464L364.583 79.5809C363.25 79.7696 361.876 79.8676 360.461 79.875H360.344V77.4129H360.044V79.875H355.344V77.4129H355.044V79.875H342.844ZM354.562 32.4922V44C354.562 44 360.227 43.7188 360.227 50.1094C360.227 56.5 354.562 56 354.562 56V70.4609H360.227C364.81 70.4609 368.312 68.9635 370.734 65.9688C373.156 62.974 374.393 58.6901 374.445 53.1172V50.1094C374.445 44.3281 373.247 39.9531 370.852 36.9844C368.456 33.9896 364.953 32.4922 360.344 32.4922H354.562ZM23 174H34.7188V171.15H31.3438V170.85H34.7188V167.15H31.3438V166.85H34.7188V163.15H31.3438V162.85H34.7188V159.15H31.3438V158.85H34.7188V155.15H31.3438V154.85H34.7188V151.15H31.3438V150.85H34.7188V147.15H31.3438V146.85H34.7188V144.15H31.3438V143.85H34.7188V140.15H31.3438V139.85H34.7188V136.15H31.3438V135.85H34.7188V132.15H31.3438V131.85H34.7188V128.15H31.3438V127.85H34.7188V124.15H31.3438V123.85H34.7188V120.15H31.3438V119.85H34.7188V117.125H23V174ZM91.8672 174H80.1484L57.3359 136.578V174H45.6172V117.125H57.3359L80.1875 154.625V117.125H91.8672V174ZM134.5 123L123.187 159.672H124.664H124.846L124.902 159.844L129.386 173.603L145.746 126.009L142.531 117.125L134.5 123ZM112 123L123.049 159.672H121.52H121.338L121.282 159.846L116.883 173.591L100.5 126L103.801 117.125L112 123ZM120.08 174H117.277L121.703 160.172H123.117H124.483L128.99 174H126.193V180H123H120.08V174ZM188.664 149.352H166.164V164.586H192.57V174H154.445V117.125H192.492V126.617H166.164V140.172H188.664V149.352ZM233.977 174H245.695V117.125H234.016V154.625L211.164 117.125H199.445V174H211.164V136.578L233.977 174ZM316.75 166L310.891 174L305.031 166V117.125H307.961L308 114H311H313.82V117.125H316.75V120.18H319V137L317 139V122H316.75V129.344V141.562V166ZM371.398 161.578C373.378 157.359 374.367 152.451 374.367 146.852V144.313C374.367 138.74 373.352 133.831 371.32 129.586C369.315 125.315 366.464 122.047 362.766 119.781C359.094 117.49 354.888 116.344 350.148 116.344C345.409 116.344 341.19 117.49 337.492 119.781C333.82 122.047 330.969 125.315 328.938 129.586C326.932 133.831 325.93 138.753 325.93 144.352V147.164C325.956 152.633 326.984 157.477 329.016 161.695C331.047 165.888 333.911 169.117 337.609 171.383C341.307 173.648 345.513 174.781 350.227 174.781C354.992 174.781 359.211 173.635 362.883 171.344C366.581 169.052 369.419 165.797 371.398 161.578ZM359.289 130.68C361.424 133.779 362.492 138.31 362.492 144.273V147.047C362.466 152.958 361.398 157.464 359.289 160.562C357.18 163.635 354.159 165.172 350.227 165.172C346.216 165.172 343.143 163.57 341.008 160.367C338.872 157.164 337.805 152.659 337.805 146.852V144.078C337.831 138.167 338.911 133.688 341.047 130.641C343.182 127.568 346.216 126.031 350.148 126.031C354.107 126.031 357.154 127.581 359.289 130.68ZM429.133 174H417.414L394.602 136.578V174H382.883V117.125H394.602L417.453 154.625V117.125H429.133V174ZM466.516 154C468.078 155.172 468.859 156.865 468.859 159.078C468.859 161.109 468.078 162.698 466.516 163.844C464.953 164.964 462.779 165.523 459.992 165.523C452.492 165.523 448.742 162.385 448.742 156.109H436.984C436.984 159.781 437.922 163.01 439.797 165.797C441.698 168.583 444.445 170.784 448.039 172.398C451.633 173.987 455.617 174.781 459.992 174.781C466.294 174.781 471.307 173.388 475.031 170.602C478.755 167.789 480.617 163.922 480.617 159C480.617 154.573 479.094 150.875 476.047 147.906C473 144.938 468.143 142.451 461.477 140.445C457.857 139.352 455.109 138.18 453.234 136.93C451.385 135.68 450.461 134.13 450.461 132.281C450.461 130.302 451.255 128.714 452.844 127.516C454.432 126.292 456.659 125.68 459.523 125.68C462.492 125.68 464.797 126.409 466.438 127.867C468.078 129.299 468.898 131.318 468.898 133.922H480.617C480.617 130.51 479.732 127.464 477.961 124.781C476.216 122.099 473.755 120.029 470.578 118.57C467.401 117.086 463.781 116.344 459.719 116.344C455.682 116.344 452.036 117.021 448.781 118.375C445.552 119.729 443.065 121.617 441.32 124.039C439.602 126.435 438.742 129.169 438.742 132.242C438.742 138.154 441.971 142.854 448.43 146.344C450.799 147.62 454.016 148.922 458.078 150.25C462.141 151.552 464.953 152.802 466.516 154ZM298.078 129.5H289.258V126.617H280.547V174H268.828V126.617H252.078L261.578 117H289.258V114H298.078V117.125V129.5ZM319.992 30V71.875L325.852 79.875L331.711 71.875V47.4375V35.2188V30H319.992ZM319.992 29.5H331.711V27.875V23H328.781H326H322.922H319.992V29.5ZM354.844 50.5C355.12 50.5 355.344 50.2761 355.344 50C355.344 49.7239 355.12 49.5 354.844 49.5C354.568 49.5 354.344 49.7239 354.344 50C354.344 50.2761 354.568 50.5 354.844 50.5Z" fill="white"/>
</svg>
